<?xml version="1.0" standalone="no"?>
<!DOCTYPE svg PUBLIC "-//W3C//DTD SVG 20010904//EN"
 "http://www.w3.org/TR/2001/REC-SVG-20010904/DTD/svg10.dtd">
<svg version="1.0" xmlns="http://www.w3.org/2000/svg"
 width="950.000000pt" height="180.000000pt" viewBox="0 0 950.000000 180.000000"
 preserveAspectRatio="xMidYMid meet">

<g transform="translate(0.000000,180.000000) scale(0.100000,-0.100000)"
fill="#000000" stroke="none">
<path d="M0 900 l0 -900 4750 0 4750 0 0 770 c0 424 -2 770 -4 770 -2 0 -23
-7 -46 -15 -23 -8 -46 -15 -51 -15 -11 0 -10 55 1 90 7 23 8 23 9 -9 1 -40 6
-38 14 7 5 23 3 32 -7 32 -9 0 -12 9 -9 28 4 21 2 24 -6 12 -6 -8 -11 -28 -12
-45 0 -16 -5 -41 -9 -55 -5 -16 -7 5 -5 55 1 44 1 66 -2 48 -3 -22 -8 -30 -18
-27 -7 3 -15 -2 -18 -13 -3 -10 -6 -3 -7 17 l-3 35 -7 -40 -7 -40 -2 53 c0 33
3 51 9 47 15 -9 12 4 -5 21 -13 14 -15 12 -16 -18 -2 -30 -2 -31 -6 -5 -2 15
-9 27 -14 27 -5 0 -9 10 -10 23 0 21 -1 21 -9 2 -12 -29 -12 -35 5 -35 11 0
13 -11 8 -52 -8 -70 -16 -77 -12 -10 4 49 -3 67 -14 40 -3 -7 -6 10 -7 37 -2
41 -3 45 -10 25 -8 -24 -8 -23 -9 8 l-1 32 -65 0 c-65 0 -65 0 -59 -25 4 -15
2 -25 -5 -25 -6 0 -11 11 -11 25 l0 25 -346 0 c-387 0 -366 5 -257 -64 51 -32
82 -33 117 -5 l27 21 30 -28 c16 -15 29 -34 29 -41 0 -8 -24 -49 -54 -93 -30
-43 -57 -87 -60 -98 -4 -11 -19 -22 -34 -25 -56 -12 -82 -46 -96 -127 -19
-103 -21 -107 -75 -120 -44 -10 -60 -7 -266 50 -323 90 -300 82 -299 108 1 26
-11 29 -25 5 -8 -15 -10 -16 -15 -3 -11 31 -64 199 -97 307 l-34 113 -177 0
-176 0 -147 -218 -146 -217 15 -42 c8 -24 36 -120 61 -215 26 -95 50 -185 55
-200 8 -24 6 -28 -23 -37 -83 -27 -270 -72 -280 -67 -8 3 -8 5 1 5 7 1 10 5 7
11 -3 6 1 7 9 4 9 -3 16 -2 16 4 0 12 -25 34 -32 27 -2 -3 -11 7 -19 22 -8 15
-24 38 -36 51 -13 14 -23 30 -23 37 0 7 -11 32 -24 57 -22 42 -31 78 -26 103
1 6 1 29 0 51 -1 23 4 45 10 49 8 5 4 15 -12 32 l-23 26 26 -6 c24 -6 26 -4
27 35 1 23 8 45 15 50 12 7 13 11 16 43 0 8 10 15 21 15 11 0 20 7 20 15 0 7
8 19 18 24 14 9 14 12 4 19 -11 7 -7 11 12 16 14 3 26 13 26 21 0 8 10 25 22
37 l21 21 -21 -5 c-12 -4 -22 -3 -22 2 0 9 91 40 119 40 12 0 21 5 21 11 0 6
-7 9 -14 6 -10 -4 -13 -1 -10 7 3 8 13 12 24 9 10 -3 21 0 24 6 4 6 14 11 22
11 8 0 12 -4 9 -10 -4 -6 1 -7 11 -3 16 6 15 7 -2 20 -10 7 -21 13 -26 13 -4
0 -8 9 -8 20 0 18 -5 20 -52 15 -29 -3 -64 -8 -78 -11 -18 -4 -22 -2 -14 6 6
6 41 16 77 22 64 11 67 12 67 39 l0 29 -3505 0 -3505 0 0 -900z m6845 850 c3
-5 1 -10 -4 -10 -6 0 -11 5 -11 10 0 6 2 10 4 10 3 0 8 -4 11 -10z m2125 -22
c-11 -21 -86 -113 -134 -163 -18 -20 -18 -20 -7 2 6 12 36 49 66 81 30 32 59
72 65 87 6 15 13 25 16 22 3 -3 0 -16 -6 -29z m-2155 12 c-3 -5 -11 -10 -16
-10 -6 0 -7 5 -4 10 3 6 11 10 16 10 6 0 7 -4 4 -10z m2412 -42 c-3 -7 -5 -2
-5 12 0 14 2 19 5 13 2 -7 2 -19 0 -25z m-2387 -2 c0 -2 -9 -6 -20 -9 -11 -3
-18 -1 -14 4 5 9 34 13 34 5z m2217 -53 c-3 -10 -5 -4 -5 12 0 17 2 24 5 18 2
-7 2 -21 0 -30z m191 7 c-1 -16 -6 -30 -11 -30 -5 0 -7 11 -5 25 3 14 2 25 -3
25 -4 0 -10 -15 -12 -32 -4 -32 -4 -32 -5 5 -2 31 1 37 18 37 16 0 20 -6 18
-30z m52 3 c0 -10 -5 -25 -10 -33 -7 -11 -10 -7 -10 18 0 17 5 32 10 32 6 0
10 -8 10 -17z m-8629 -52 c33 -33 38 -75 14 -120 -16 -33 -33 -41 -81 -41 -50
0 -84 37 -84 90 0 50 14 78 43 90 43 17 78 11 108 -19z m129 14 c0 -8 -7 -15
-15 -15 -8 0 -15 -4 -15 -10 0 -19 35 -10 45 13 12 27 65 38 65 13 0 -9 -7
-16 -15 -16 -20 0 -19 -10 3 -26 16 -13 16 -15 0 -28 -13 -9 -18 -27 -18 -60
0 -39 -3 -46 -20 -46 -17 0 -20 7 -20 48 0 53 -5 63 -26 55 -9 -3 -14 -21 -14
-54 0 -42 -3 -49 -20 -49 -17 0 -20 7 -20 45 0 25 -6 55 -12 66 -10 17 -10 23
0 26 6 3 12 13 12 23 0 20 13 28 48 29 13 1 22 -5 22 -14z m130 -5 c0 -13 -7
-20 -20 -20 -13 0 -20 7 -20 20 0 13 7 20 20 20 13 0 20 -7 20 -20z m468 4
c22 -15 30 -48 13 -59 -6 -3 -3 -18 7 -34 15 -27 15 -30 -1 -55 -29 -44 -107
-32 -107 16 0 23 18 23 42 1 17 -15 20 -15 28 -3 14 23 12 31 -10 37 -23 6
-27 31 -5 39 8 4 15 12 15 20 0 8 -7 14 -15 14 -8 0 -15 -4 -15 -10 0 -5 -9
-10 -20 -10 -11 0 -20 6 -20 14 0 16 37 46 55 46 6 0 21 -7 33 -16z m143 6
c22 -12 26 -50 5 -50 -8 0 -18 5 -21 10 -10 16 -32 12 -37 -8 -4 -13 2 -17 26
-17 22 0 34 -7 45 -27 14 -25 14 -31 1 -55 -19 -33 -63 -42 -90 -18 -24 22
-32 70 -20 116 15 53 49 71 91 49z m164 -15 c0 -15 -8 -21 -32 -23 -37 -4 -45
-17 -12 -19 32 -3 49 -22 49 -56 0 -38 -25 -67 -58 -67 -28 0 -62 26 -62 47 0
18 20 16 42 -4 22 -19 42 -6 36 23 -3 15 -11 18 -41 16 l-38 -3 7 38 c12 65
20 74 67 71 34 -2 42 -7 42 -23z m223 9 c48 -34 15 -104 -50 -104 -23 0 -27
-5 -30 -32 -2 -25 -8 -33 -23 -33 -18 0 -20 8 -23 79 -2 44 -1 85 2 93 8 19
96 17 124 -3z m792 -4 c0 -13 -7 -20 -20 -20 -13 0 -20 7 -20 20 0 13 7 20 20
20 13 0 20 -7 20 -20z m-434 -30 c19 0 18 -29 -1 -36 -9 -4 -15 -19 -15 -40 0
-24 5 -34 15 -34 8 0 15 -7 15 -15 0 -21 -56 -20 -64 1 -3 9 -6 31 -6 49 0 19
-4 37 -10 40 -16 10 -12 20 17 51 27 29 28 29 31 7 2 -13 10 -23 18 -23z m354
20 c0 -11 5 -20 10 -20 6 0 10 -9 10 -20 0 -11 -4 -20 -10 -20 -5 0 -10 -16
-10 -35 0 -25 4 -35 16 -35 9 0 14 -6 12 -12 -3 -7 -18 -13 -34 -13 -27 0 -29
3 -32 40 -1 22 -8 51 -15 64 -9 19 -9 25 1 28 6 3 12 11 12 18 0 12 13 22 33
24 4 1 7 -8 7 -19z m6397 -27 c-3 -10 -5 -4 -5 12 0 17 2 24 5 18 2 -7 2 -21
0 -30z m200 5 c-3 -7 -5 -2 -5 12 0 14 2 19 5 13 2 -7 2 -19 0 -25z m114 -25
c-9 -15 -10 -14 -7 7 3 14 5 32 7 40 1 8 4 5 6 -7 2 -12 0 -30 -6 -40z m-278
-23 c4 -37 3 -50 -3 -40 -9 14 -15 109 -6 99 2 -2 6 -29 9 -59z m234 28 c-3
-7 -5 -2 -5 12 0 14 2 19 5 13 2 -7 2 -19 0 -25z m25 2 c-2 -16 -6 -30 -8 -30
-2 0 -4 14 -4 30 0 17 4 30 8 30 5 0 7 -13 4 -30z m-8402 -50 c0 -63 -2 -70
-20 -70 -18 0 -20 7 -20 70 0 63 2 70 20 70 18 0 20 -7 20 -70z m121 60 c10
-6 19 -17 19 -25 0 -18 -36 -20 -43 -2 -9 25 -40 -19 -33 -47 7 -28 30 -35 43
-12 5 8 15 11 26 7 16 -6 16 -8 1 -29 -23 -33 -82 -28 -103 9 -35 63 27 132
90 99z m149 -10 c11 -11 20 -29 20 -39 0 -16 -8 -20 -45 -23 -37 -2 -43 -6
-35 -18 8 -12 13 -13 29 -3 11 7 27 10 36 7 27 -11 -12 -44 -51 -44 -59 0 -83
63 -43 114 25 31 61 34 89 6z m858 3 c2 -7 -5 -16 -15 -20 -26 -9 -33 -23 -33
-65 0 -31 -4 -38 -20 -38 -18 0 -20 7 -20 70 l0 70 42 -3 c23 -1 43 -8 46 -14z
m123 -1 c48 -40 17 -122 -46 -122 -40 0 -68 30 -68 72 0 36 32 68 68 68 13 0
33 -8 46 -18z m228 -8 c33 -42 27 -54 -24 -54 -25 0 -45 -5 -45 -10 0 -17 29
-23 46 -10 21 19 43 -3 24 -25 -19 -23 -76 -19 -94 7 -52 74 38 162 93 92z
m146 4 c14 -21 14 -23 0 -26 -9 -2 -22 2 -30 8 -21 17 -35 3 -35 -36 0 -33 20
-48 35 -24 7 11 45 14 45 3 0 -17 -36 -43 -59 -43 -34 0 -48 10 -60 43 -27 70
62 134 104 75z m165 -48 c0 -63 -2 -70 -20 -70 -18 0 -20 7 -20 70 0 63 2 70
20 70 18 0 20 -7 20 -70z m137 48 c46 -43 16 -118 -47 -118 -62 0 -92 71 -48
117 27 29 65 29 95 1z m83 10 c0 -9 3 -9 12 0 18 18 56 14 68 -7 5 -11 10 -42
10 -70 0 -44 -3 -51 -20 -51 -17 0 -20 7 -20 49 0 28 -5 53 -10 56 -21 13 -40
-17 -40 -61 0 -37 -3 -44 -20 -44 -18 0 -20 7 -20 70 0 63 2 70 20 70 11 0 20
-5 20 -12z m3886 -7 c-6 -9 -66 -33 -66 -26 0 6 52 34 63 35 5 0 6 -4 3 -9z
m2434 -17 c0 -2 -7 -4 -15 -4 -8 0 -15 4 -15 10 0 5 7 7 15 4 8 -4 15 -8 15
-10z m17 -16 c-3 -8 -6 -5 -6 6 -1 11 2 17 5 13 3 -3 4 -12 1 -19z m-49 -6
c-13 -2 -18 -13 -18 -38 0 -27 -4 -34 -20 -34 -11 0 -20 4 -20 10 0 5 7 7 15
4 8 -4 15 -1 15 5 0 6 -7 11 -15 11 -9 0 -12 6 -8 16 5 13 7 13 14 2 6 -9 9
-5 9 14 0 22 3 25 23 20 18 -5 19 -7 5 -10z m139 -14 c-3 -7 -5 -2 -5 12 0 14
2 19 5 13 2 -7 2 -19 0 -25z m-110 0 c-3 -8 -6 -5 -6 6 -1 11 2 17 5 13 3 -3
4 -12 1 -19z m-503 -34 c-3 -40 -14 -60 -14 -26 0 12 -4 22 -10 22 -10 0 -14
-13 -11 -42 3 -24 -5 -23 -12 2 -3 13 4 31 20 50 14 17 26 30 27 30 2 0 2 -16
0 -36z m473 4 c-3 -7 -5 -2 -5 12 0 14 2 19 5 13 2 -7 2 -19 0 -25z m-274 7
c-3 -9 -8 -14 -10 -11 -3 3 -2 9 2 15 9 16 15 13 8 -4z m24 -27 c-3 -7 -5 -2
-5 12 0 14 2 19 5 13 2 -7 2 -19 0 -25z m39 6 c10 4 14 -2 14 -22 -1 -25 -2
-26 -14 -9 -11 14 -15 15 -19 5 -3 -7 -5 3 -5 22 0 19 2 27 5 17 3 -11 11 -16
19 -13z m31 -41 c-3 -10 -5 -2 -5 17 0 19 2 27 5 18 2 -10 2 -26 0 -35z m25
22 c-2 -14 -6 -25 -8 -25 -2 0 -4 11 -4 25 0 14 4 25 9 25 4 0 6 -11 3 -25z
m-410 -100 c-2 -14 -9 -25 -14 -25 -5 0 -7 3 -5 8 2 4 7 15 10 25 9 25 15 21
9 -8z m-8056 -52 c15 -40 20 -64 13 -69 -6 -3 -13 3 -16 15 -7 28 -54 28 -71
0 -24 -38 -24 -11 -1 56 16 43 29 65 38 63 8 -2 24 -31 37 -65z m144 47 c0
-13 5 -18 15 -14 25 10 45 -16 45 -57 0 -50 -18 -51 -22 -1 -2 25 -8 37 -18
37 -10 0 -16 -12 -18 -37 -5 -63 -22 -42 -22 27 0 37 4 65 10 65 6 0 10 -9 10
-20z m100 10 c0 -5 -4 -10 -10 -10 -5 0 -10 5 -10 10 0 6 5 10 10 10 6 0 10
-4 10 -10z m910 -61 c0 -44 -4 -68 -10 -64 -5 3 -10 35 -10 71 0 36 4 64 10
64 6 0 10 -30 10 -71z m330 0 c0 -44 -4 -68 -10 -64 -5 3 -10 35 -10 71 0 36
4 64 10 64 6 0 10 -30 10 -71z m220 61 c0 -5 -5 -10 -11 -10 -8 0 -8 -4 0 -14
8 -10 9 -16 1 -21 -5 -3 -10 -21 -10 -40 0 -19 -4 -37 -10 -40 -6 -4 -10 10
-10 34 0 22 -4 43 -10 46 -13 8 18 55 36 55 8 0 14 -4 14 -10z m510 0 c0 -5
-4 -10 -10 -10 -5 0 -10 5 -10 10 0 6 5 10 10 10 6 0 10 -4 10 -10z m260 0 c0
-5 -5 -10 -11 -10 -8 0 -8 -4 0 -14 8 -10 9 -16 1 -21 -5 -3 -10 -21 -10 -40
0 -19 -4 -37 -10 -40 -6 -4 -10 10 -10 34 0 22 -4 43 -10 46 -13 8 18 55 36
55 8 0 14 -4 14 -10z m719 -3 c6 -8 14 -28 17 -45 5 -25 1 -36 -19 -56 -15
-14 -33 -26 -42 -26 -9 0 -27 12 -42 26 -20 20 -24 31 -19 56 9 44 24 58 61
58 18 0 38 -6 44 -13z m81 4 c0 -5 -6 -12 -12 -14 -10 -4 -10 -6 0 -6 7 -1 15
6 18 14 4 9 19 15 35 15 34 0 39 -17 7 -23 l-23 -4 23 -8 c18 -6 22 -15 22
-51 0 -24 -4 -44 -10 -44 -5 0 -10 19 -10 42 0 50 -17 41 -22 -12 -4 -45 -22
-41 -26 5 -4 45 -22 46 -22 0 0 -19 -4 -35 -9 -35 -12 0 -21 92 -10 112 10 19
39 25 39 9z m400 -6 c6 -8 9 -23 5 -34 -3 -10 -1 -22 4 -26 6 -3 13 7 17 22 4
15 11 34 17 41 13 17 56 15 64 -3 7 -21 -6 -33 -17 -16 -9 16 -40 8 -40 -10 0
-6 6 -9 14 -6 19 8 56 -20 56 -42 0 -10 -9 -26 -20 -36 -17 -15 -24 -16 -45
-7 -14 6 -25 19 -25 28 0 12 -5 10 -21 -10 -11 -14 -26 -26 -33 -26 -18 0 -52
27 -44 36 4 4 15 1 23 -6 13 -11 19 -11 32 2 17 18 10 38 -13 38 -8 0 -14 5
-14 10 0 6 7 10 15 10 8 0 15 7 15 15 0 18 -21 20 -38 3 -17 -17 -28 -2 -12
17 16 19 44 19 60 0z m210 5 c0 -5 -11 -10 -25 -10 -16 0 -25 -6 -25 -16 0 -8
4 -13 9 -10 5 3 20 -3 32 -13 23 -19 23 -21 9 -48 -9 -15 -22 -29 -31 -31 -18
-3 -57 24 -47 34 4 4 15 1 23 -6 13 -11 19 -11 32 2 20 21 7 41 -23 35 -30 -5
-36 3 -28 42 6 27 11 31 40 31 19 0 34 -4 34 -10z m-1619 -12 c4 -46 3 -118
-2 -118 -23 0 -43 90 -25 118 9 16 26 15 27 0z m-2161 -23 c16 -20 5 -32 -14
-16 -20 17 -36 6 -36 -24 0 -30 16 -41 36 -24 8 6 17 9 21 6 8 -9 -17 -37 -33
-37 -19 0 -54 36 -54 55 0 19 35 55 54 55 7 0 19 -7 26 -15z m230 -5 c30 -30
24 -40 -22 -40 -39 0 -41 -1 -26 -17 14 -14 20 -14 33 -3 20 17 32 5 15 -15
-19 -23 -52 -15 -69 16 -13 24 -13 29 2 53 21 31 40 33 67 6z m75 -28 c7 28
35 60 35 40 0 -23 -41 -105 -49 -96 -15 17 -40 92 -33 99 4 4 15 -10 24 -31
l17 -38 6 26z m115 28 c30 -30 24 -40 -22 -40 -39 0 -41 -1 -26 -17 14 -14 20
-14 33 -3 20 17 32 5 15 -15 -19 -23 -52 -15 -69 16 -13 24 -13 29 2 53 21 31
40 33 67 6z m148 8 c7 -7 12 -30 12 -52 0 -40 -1 -41 -35 -43 -47 -2 -66 28
-33 51 12 9 29 16 37 16 11 0 12 3 3 12 -8 8 -15 8 -27 -2 -20 -17 -32 -5 -15
15 15 18 41 20 58 3z m155 3 c4 0 7 -24 7 -53 0 -58 -16 -56 -22 2 -5 53 -32
47 -36 -8 -2 -23 -7 -40 -13 -37 -9 6 -13 88 -4 96 4 4 44 4 68 0z m101 -13
c23 -32 20 -38 -19 -38 -19 0 -35 -4 -35 -9 0 -17 19 -22 40 -11 16 8 20 8 20
-4 0 -34 -70 -27 -84 9 -7 19 9 61 26 68 25 10 37 7 52 -15z m103 -21 c8 -24
12 -27 12 -11 1 11 8 29 16 40 14 19 14 19 14 -1 -1 -30 -25 -90 -35 -87 -5 1
-14 17 -21 35 -8 23 -12 26 -12 11 -1 -11 -7 -28 -15 -39 -12 -17 -14 -14 -30
30 -19 57 -19 55 -7 55 5 0 14 -12 19 -27 10 -29 11 -28 27 23 7 21 17 12 32
-29z m217 21 c23 -32 20 -38 -19 -38 -19 0 -35 -4 -35 -9 0 -17 19 -22 40 -11
16 8 20 8 20 -4 0 -34 -70 -27 -84 9 -7 19 9 61 26 68 25 10 37 7 52 -15z m47
-8 c14 -38 22 -38 37 2 17 45 26 28 11 -21 -19 -63 -34 -69 -53 -21 -16 41
-21 70 -10 70 3 0 10 -13 15 -30z m143 8 c23 -32 20 -38 -19 -38 -19 0 -35 -4
-35 -9 0 -17 19 -22 40 -11 16 8 20 8 20 -4 0 -34 -70 -27 -84 9 -7 19 9 61
26 68 25 10 37 7 52 -15z m188 5 c24 -21 23 -55 -2 -78 -17 -15 -24 -16 -45
-7 -44 20 -29 100 19 102 5 0 18 -7 28 -17z m182 11 c17 -7 22 -34 6 -34 -5 0
-10 5 -10 10 0 6 -7 10 -15 10 -25 0 -17 -15 16 -27 27 -11 31 -10 39 12 13
35 50 43 72 15 26 -32 23 -40 -17 -40 -19 0 -35 -4 -35 -9 0 -17 19 -22 40
-11 16 8 20 8 20 -4 0 -8 -9 -17 -20 -21 -21 -7 -60 10 -60 25 0 6 -9 1 -20
-10 -11 -11 -24 -20 -29 -20 -21 0 -41 13 -41 26 0 17 12 18 27 3 6 -6 17 -8
23 -4 8 5 2 12 -19 21 -54 23 -32 79 23 58z m206 -9 c16 -20 5 -32 -14 -16
-20 17 -36 6 -36 -24 0 -30 16 -41 36 -24 21 17 31 2 11 -18 -13 -14 -21 -14
-42 -5 -20 9 -25 19 -25 46 0 49 43 74 70 41z m60 -70 c10 0 16 12 18 35 6 59
22 59 22 0 0 -53 -1 -55 -28 -57 -38 -2 -52 13 -52 57 0 53 14 60 20 8 3 -29
10 -43 20 -43z m140 27 c0 -33 -4 -51 -10 -47 -5 3 -10 24 -10 46 0 33 -3 40
-17 37 -13 -2 -19 -15 -21 -46 -4 -55 -22 -44 -22 13 0 46 8 52 57 51 21 -1
23 -6 23 -54z m94 26 l14 -33 11 28 c6 15 15 27 20 27 14 0 -29 -121 -46 -127
-21 -8 -30 7 -11 18 15 9 16 13 2 50 -23 68 -16 97 10 37z m238 15 c24 -21 23
-55 -2 -78 -17 -15 -24 -16 -45 -7 -44 20 -29 100 19 102 5 0 18 -7 28 -17z
m82 8 c3 -5 -3 -11 -14 -14 -16 -4 -20 -14 -20 -47 0 -25 -4 -39 -10 -35 -5 3
-10 26 -10 50 0 33 4 45 18 48 28 8 31 7 36 -2z m80 -23 l14 -33 11 28 c6 15
15 27 20 27 14 0 -29 -121 -46 -127 -21 -8 -30 7 -11 18 15 9 16 13 2 50 -23
68 -16 97 10 37z m138 15 c24 -21 23 -55 -2 -78 -17 -15 -24 -16 -45 -7 -44
20 -29 100 19 102 5 0 18 -7 28 -17z m58 -34 c0 -52 23 -48 30 5 7 52 25 45
25 -10 0 -44 -2 -47 -27 -50 -16 -1 -35 4 -43 12 -15 15 -21 75 -9 87 14 13
24 -6 24 -44z m125 40 c4 -5 -1 -9 -9 -9 -10 0 -16 -13 -18 -42 -2 -24 -7 -43
-13 -43 -10 0 -20 69 -12 89 6 14 44 18 52 5z m405 -4 c16 -20 5 -32 -14 -16
-20 17 -36 6 -36 -24 0 -30 16 -41 36 -24 8 6 17 9 21 6 8 -9 -17 -37 -33 -37
-19 0 -54 36 -54 55 0 19 35 55 54 55 7 0 19 -7 26 -15z m90 -5 c30 -30 24
-40 -22 -40 -39 0 -41 -1 -26 -17 14 -14 20 -14 33 -3 20 17 32 5 15 -15 -19
-23 -52 -15 -69 16 -13 24 -13 29 2 53 21 31 40 33 67 6z m-3280 -35 c0 -25
-4 -45 -10 -45 -5 0 -10 20 -10 45 0 25 5 45 10 45 6 0 10 -20 10 -45z m7630
0 c0 -8 -2 -15 -4 -15 -2 0 -6 7 -10 15 -3 8 -1 15 4 15 6 0 10 -7 10 -15z
m50 6 c7 -2 -23 -21 -32 -21 -5 0 -8 6 -8 14 0 8 8 13 18 11 9 -2 19 -4 22 -4z
m-6750 -201 l0 -70 -30 0 c-40 0 -65 36 -51 74 7 18 18 26 35 26 15 0 25 7 29
20 10 39 17 19 17 -50z m770 25 c23 0 25 -4 28 -47 2 -29 -1 -48 -7 -48 -6 0
-11 18 -11 41 0 33 -3 40 -17 37 -13 -2 -19 -14 -21 -41 -5 -62 -22 -42 -22
26 0 66 11 97 20 55 4 -17 12 -23 30 -23z m478 -29 c-2 -31 -7 -57 -13 -59
-11 -2 -20 97 -10 121 12 32 26 -6 23 -62z m232 48 c0 -8 9 -14 20 -14 24 0
42 -32 38 -66 -5 -37 -23 -30 -26 11 -4 48 -30 47 -34 -2 -3 -33 -6 -37 -35
-40 -33 -4 -33 -3 -35 39 -2 74 3 100 19 84 4 -4 6 -29 5 -56 -1 -27 3 -52 8
-55 6 -4 10 16 10 53 0 32 3 62 6 65 10 9 24 -2 24 -19z m304 5 c-3 -5 -10 -7
-15 -3 -5 3 -7 10 -3 15 3 5 10 7 15 3 5 -3 7 -10 3 -15z m146 -5 c0 -8 9 -14
20 -14 24 0 42 -32 38 -66 -5 -37 -23 -30 -26 11 -4 48 -30 47 -34 -2 -2 -21
-7 -38 -13 -38 -11 0 -20 99 -11 122 7 17 26 8 26 -13z m600 -50 c0 -48 -3
-65 -12 -62 -14 5 -24 99 -14 125 12 32 26 -2 26 -63z m-3710 1 l0 -65 -35 0
c-28 0 -38 5 -47 25 -16 36 3 75 37 75 16 0 25 6 25 15 0 8 5 15 10 15 6 0 10
-28 10 -65z m240 0 c0 -37 -4 -65 -10 -65 -6 0 -10 28 -10 65 0 37 4 65 10 65
6 0 10 -28 10 -65z m591 53 c5 -78 3 -118 -8 -118 -7 0 -15 12 -18 28 -4 15
-8 36 -10 46 -5 22 11 56 25 56 6 0 10 -6 11 -12z m1050 0 c5 -78 3 -118 -8
-118 -7 0 -15 12 -18 28 -4 15 -8 36 -10 46 -5 22 11 56 25 56 6 0 10 -6 11
-12z m250 0 c5 -78 3 -118 -8 -118 -7 0 -15 12 -18 28 -4 15 -8 36 -10 46 -5
22 11 56 25 56 6 0 10 -6 11 -12z m1080 -5 c1 -10 1 -33 0 -51 -2 -18 3 -39 9
-47 10 -12 9 -15 -8 -15 -17 0 -21 8 -24 48 -5 53 0 82 13 82 5 0 10 -8 10
-17z m-3117 -35 c20 -28 12 -38 -30 -38 -23 0 -33 -4 -28 -11 4 -6 19 -9 36
-5 21 4 28 2 26 -7 -3 -6 -19 -13 -36 -15 -26 -3 -34 1 -44 22 -26 59 40 106
76 54z m107 -4 c12 -33 -11 -74 -41 -74 -11 0 -20 -6 -20 -14 0 -8 -4 -18 -10
-21 -6 -4 -10 20 -10 64 l0 71 35 0 c29 0 37 -5 46 -26z m128 17 c8 -5 14 -24
14 -41 0 -34 -15 -50 -51 -50 -29 0 -46 39 -32 75 10 26 42 33 69 16z m53 -23
l12 -33 13 33 c23 56 33 34 12 -27 -20 -59 -43 -90 -56 -77 -4 4 -1 11 7 16
14 9 9 47 -15 103 -4 10 -3 17 4 17 7 0 17 -15 23 -32z m190 18 c11 -16 9 -86
-2 -86 -5 0 -10 18 -10 41 0 33 -3 40 -17 37 -13 -2 -19 -14 -21 -41 -4 -50
-22 -48 -22 3 0 29 -4 40 -15 40 -11 0 -15 -11 -15 -40 0 -22 -4 -40 -10 -40
-5 0 -10 22 -10 50 l0 49 58 -1 c31 -1 60 -6 64 -12z m102 -8 c20 -28 12 -38
-30 -38 -23 0 -33 -4 -28 -11 4 -6 19 -9 36 -5 21 4 28 2 26 -7 -3 -6 -19 -13
-36 -15 -26 -3 -34 1 -44 22 -26 59 40 106 76 54z m104 -30 c2 -29 -1 -48 -7
-48 -6 0 -11 18 -11 41 0 33 -3 40 -17 37 -13 -2 -19 -14 -21 -41 -5 -54 -22
-45 -22 12 l0 49 38 -1 c37 -2 37 -2 40 -49z m202 1 l6 -47 -41 2 c-33 1 -41
5 -43 24 -3 18 2 23 27 28 17 4 31 11 31 17 0 5 -13 7 -30 4 -23 -5 -28 -3
-23 9 4 10 16 14 37 12 29 -3 31 -6 36 -49z m98 -1 c2 -29 -1 -48 -7 -48 -6 0
-11 18 -11 41 0 33 -3 40 -17 37 -13 -2 -19 -14 -21 -41 -5 -54 -22 -45 -22
12 l0 49 38 -1 c37 -2 37 -2 40 -49z m252 33 c17 -32 12 -41 -25 -41 -19 0
-35 -5 -35 -11 0 -8 12 -9 37 -4 33 6 35 5 24 -9 -20 -24 -58 -20 -77 9 -15
23 -15 27 0 50 20 30 61 33 76 6z m98 -33 c2 -29 -1 -48 -7 -48 -6 0 -11 18
-11 41 0 33 -3 40 -17 37 -13 -2 -19 -14 -21 -41 -5 -54 -22 -45 -22 12 l0 49
38 -1 c37 -2 37 -2 40 -49z m90 34 c3 -9 -3 -11 -24 -6 -19 5 -25 4 -20 -5 4
-6 13 -11 20 -11 8 0 19 -7 26 -15 10 -12 10 -18 0 -31 -15 -17 -61 -15 -68 3
-2 9 5 11 27 7 40 -8 40 4 1 17 -28 10 -40 36 -23 53 11 11 56 2 61 -12z m44
-19 c2 -27 8 -39 21 -41 14 -3 17 4 17 37 0 23 5 41 10 41 6 0 10 -22 10 -50
l0 -50 -34 0 c-38 0 -46 12 -46 66 0 46 18 43 22 -3z m121 20 c-16 -11 -23
-26 -23 -49 0 -19 -4 -34 -10 -34 -5 0 -10 23 -10 50 0 50 0 50 33 49 32 0 32
0 10 -16z m97 -2 c17 -32 12 -41 -25 -41 -19 0 -35 -5 -35 -11 0 -8 12 -9 37
-4 33 6 35 5 24 -9 -20 -24 -58 -20 -77 9 -15 23 -15 27 0 50 20 30 61 33 76
6z m300 -32 l6 -47 -41 2 c-33 1 -41 5 -43 24 -3 18 2 23 27 28 17 4 31 11 31
17 0 5 -13 7 -30 4 -23 -5 -28 -3 -23 9 4 10 16 14 37 12 29 -3 31 -6 36 -49z
m202 26 c16 -35 -3 -75 -35 -75 -30 0 -47 18 -47 50 0 52 61 71 82 25z m96
-27 c2 -29 -1 -48 -7 -48 -6 0 -11 18 -11 41 0 33 -3 40 -17 37 -13 -2 -19
-14 -21 -41 -5 -54 -22 -45 -22 12 l0 49 38 -1 c37 -2 37 -2 40 -49z m86 27
c4 -14 10 -25 15 -25 5 0 12 11 15 25 6 24 26 36 26 15 0 -17 -41 -120 -51
-125 -18 -12 -31 7 -13 20 16 11 16 15 1 54 -19 47 -21 61 -8 61 5 0 12 -11
15 -25z m344 13 c7 -7 12 -20 12 -30 0 -14 -8 -18 -35 -18 -19 0 -35 -5 -35
-11 0 -8 12 -10 36 -6 30 5 34 4 24 -8 -15 -18 -52 -19 -68 -3 -7 7 -12 24
-12 38 0 31 17 50 45 50 12 0 26 -5 33 -12z m157 -36 c0 -51 -19 -57 -23 -7
-4 48 -30 47 -34 -2 -4 -47 -22 -50 -26 -5 -5 51 2 60 45 58 38 -1 38 -1 38
-44z m103 0 c5 -70 -40 -116 -76 -80 -19 19 -14 30 9 17 15 -8 24 -8 32 0 8 8
5 11 -9 11 -27 0 -44 19 -44 50 0 35 19 52 55 48 28 -3 30 -6 33 -46z m289 36
c18 -14 16 -63 -2 -78 -8 -7 -24 -10 -35 -7 -16 4 -20 0 -20 -20 0 -13 -4 -21
-10 -18 -5 3 -10 34 -10 69 l0 63 32 1 c18 0 38 -4 45 -10z m101 0 c7 -7 12
-20 12 -30 0 -14 -8 -18 -35 -18 -19 0 -35 -5 -35 -11 0 -8 12 -10 36 -6 30 5
34 4 24 -8 -15 -18 -52 -19 -68 -3 -7 7 -12 24 -12 38 0 31 17 50 45 50 12 0
26 -5 33 -12z m100 0 c7 -7 12 -24 12 -38 0 -31 -17 -50 -45 -50 -28 0 -45 19
-45 50 0 31 17 50 45 50 12 0 26 -5 33 -12z m99 0 c18 -14 16 -63 -2 -78 -8
-7 -24 -10 -35 -7 -16 4 -20 0 -20 -20 0 -13 -4 -21 -10 -18 -5 3 -10 34 -10
69 l0 63 32 1 c18 0 38 -4 45 -10z m141 0 c7 -7 12 -20 12 -30 0 -14 -8 -18
-35 -18 -19 0 -35 -5 -35 -11 0 -8 12 -10 36 -6 30 5 34 4 24 -8 -15 -18 -52
-19 -68 -3 -7 7 -12 24 -12 38 0 31 17 50 45 50 12 0 26 -5 33 -12z m150 0 c7
-7 12 -28 12 -48 0 -36 -1 -37 -40 -38 -28 -1 -42 3 -46 13 -8 20 13 45 37 45
11 0 19 5 19 11 0 7 -11 8 -32 3 -29 -6 -31 -5 -19 10 16 19 52 21 69 4z m82
2 c0 -6 -6 -10 -14 -10 -10 0 -16 -13 -18 -37 -5 -55 -28 -55 -28 0 0 24 2 46
4 48 10 9 56 8 56 -1z m78 -2 c7 -7 12 -20 12 -30 0 -14 -8 -18 -35 -18 -19 0
-35 -5 -35 -11 0 -8 12 -9 37 -4 33 6 35 5 24 -9 -16 -19 -52 -21 -69 -4 -7 7
-12 24 -12 38 0 31 17 50 45 50 12 0 26 -5 33 -12z m-3968 -178 c0 -5 -4 -10
-10 -10 -5 0 -10 5 -10 10 0 6 5 10 10 10 6 0 10 -4 10 -10z m140 0 c0 -5 -4
-10 -10 -10 -5 0 -10 5 -10 10 0 6 5 10 10 10 6 0 10 -4 10 -10z m-280 -84 c0
-28 -4 -56 -8 -63 -13 -20 -72 -21 -72 0 0 9 10 12 30 9 17 -2 30 0 30 6 0 6
-8 8 -19 5 -19 -5 -51 29 -51 54 0 25 36 51 64 46 24 -5 26 -9 26 -57z m81 54
c14 -8 19 -21 19 -53 0 -40 -1 -42 -32 -44 -41 -3 -61 13 -47 38 5 10 18 19
29 19 10 0 22 5 26 12 5 8 -2 9 -24 5 -35 -7 -43 6 -14 22 21 13 20 13 43 1z
m159 -55 c0 -25 -4 -45 -10 -45 -5 0 -10 18 -10 40 0 33 -3 40 -20 40 -17 0
-20 -7 -20 -40 0 -22 -4 -40 -10 -40 -5 0 -10 22 -10 49 0 44 3 50 23 53 41 7
57 -9 57 -57z m140 0 c0 -25 -4 -45 -10 -45 -5 0 -10 18 -10 40 0 33 -3 40
-20 40 -17 0 -20 -7 -20 -40 0 -22 -4 -40 -10 -40 -5 0 -10 22 -10 49 0 44 3
50 23 53 41 7 57 -9 57 -57z m100 1 c0 -28 -4 -56 -8 -63 -13 -20 -72 -21 -72
0 0 9 10 12 30 9 17 -2 30 0 30 6 0 6 -8 8 -19 5 -19 -5 -51 29 -51 54 0 25
36 51 64 46 24 -5 26 -9 26 -57z m131 54 c14 -8 19 -21 19 -53 0 -40 -1 -42
-32 -44 -41 -3 -61 13 -47 38 5 10 18 19 29 19 10 0 22 5 26 12 5 8 -2 9 -24
5 -35 -7 -43 6 -14 22 21 13 20 13 43 1z m119 -20 c0 -5 -13 -7 -30 -3 -27 5
-30 3 -30 -21 0 -27 30 -50 38 -28 5 17 22 15 22 -3 0 -20 -46 -30 -65 -15
-16 13 -20 57 -7 76 16 25 72 20 72 -6z m90 0 c0 -5 -13 -7 -30 -3 -27 5 -30
3 -30 -21 0 -27 30 -50 38 -28 5 17 22 15 22 -3 0 -20 -46 -30 -65 -15 -16 13
-20 57 -7 76 16 25 72 20 72 -6z m80 10 c15 -15 19 -28 14 -48 -10 -39 -12
-42 -39 -42 -63 0 -65 103 -2 109 4 1 16 -8 27 -19z m100 -11 c0 -5 -12 -7
-27 -4 -26 5 -26 4 5 -10 17 -8 32 -21 32 -29 0 -38 -71 -48 -79 -11 -3 17 -1
18 13 6 9 -7 24 -10 33 -6 15 5 12 9 -14 20 -36 15 -43 39 -16 54 19 10 53 -2
53 -20z m90 0 c0 -5 -12 -7 -27 -4 -26 5 -26 4 5 -10 17 -8 32 -21 32 -29 0
-38 -71 -48 -79 -11 -3 17 -1 18 13 6 9 -7 24 -10 33 -6 15 5 12 9 -14 20 -36
15 -43 39 -16 54 19 10 53 -2 53 -20z m-950 -29 c0 -27 -4 -50 -10 -50 -5 0
-10 23 -10 50 0 28 5 50 10 50 6 0 10 -22 10 -50z m140 0 c0 -27 -4 -50 -10
-50 -5 0 -10 23 -10 50 0 28 5 50 10 50 6 0 10 -22 10 -50z m860 -34 c0 -11
-19 -15 -25 -6 -3 5 1 10 9 10 9 0 16 -2 16 -4z m-320 -361 l0 -155 -460 0
-460 0 0 155 0 155 460 0 460 0 0 -155z m6878 43 c-2 -7 -12 -21 -23 -31 -11
-10 -15 -16 -8 -13 8 4 7 -4 -3 -23 -13 -26 -13 -35 1 -79 30 -90 -14 -176
-102 -202 -60 -18 -107 -6 -153 40 -44 44 -57 96 -41 157 24 88 132 139 210
99 17 -9 32 -11 42 -5 8 5 10 9 5 9 -8 0 63 59 72 60 1 0 1 -5 0 -12z m117
-128 c0 -11 -9 -14 -32 -12 -46 5 -43 -21 5 -45 40 -20 51 -47 32 -83 -9 -18
-19 -21 -58 -18 -35 2 -48 7 -50 21 -3 15 2 17 37 11 37 -6 41 -4 41 14 0 13
-9 22 -24 26 -81 20 -70 111 13 104 24 -2 36 -8 36 -18z m625 -10 c0 -11 7
-20 15 -20 8 0 15 -5 15 -10 0 -6 -7 -13 -15 -16 -9 -4 -15 -19 -15 -39 0 -20
6 -35 15 -39 25 -9 17 -26 -14 -26 -32 0 -41 14 -41 64 0 18 -5 37 -11 43 -9
9 -8 16 5 28 9 9 16 21 16 26 0 5 7 9 15 9 8 0 15 -9 15 -20z m-218 -22 c10
-8 19 -36 23 -70 l7 -56 -53 1 c-52 2 -54 3 -54 31 0 28 8 36 50 52 17 6 15 8
-13 13 -38 7 -43 23 -10 33 34 9 33 9 50 -4z m468 -14 c0 -7 -12 -14 -27 -16
-24 -3 -28 -8 -28 -33 0 -24 4 -30 22 -30 13 0 28 -6 34 -12 9 -9 6 -13 -14
-18 -39 -10 -60 -3 -76 27 -19 33 -6 77 28 94 27 14 61 7 61 -12z m-816 -19
c8 -39 26 -38 26 1 0 24 24 43 37 30 4 -3 -4 -40 -17 -82 -24 -75 -46 -102
-76 -90 -18 7 -18 26 0 26 25 0 26 16 6 75 -25 71 -25 75 -1 75 14 0 21 -10
25 -35z m248 21 c4 -6 8 -35 8 -63 0 -46 -3 -53 -20 -53 -17 0 -20 7 -20 50 0
38 -4 50 -15 50 -11 0 -15 -12 -15 -50 0 -43 -3 -50 -20 -50 -17 0 -20 7 -20
50 0 38 -4 50 -15 50 -11 0 -15 -12 -15 -50 0 -43 -3 -50 -20 -50 -18 0 -20 7
-20 64 l0 63 83 1 c51 0 85 -4 89 -12z m245 2 c8 -6 13 -32 13 -64 0 -47 -2
-54 -20 -54 -17 0 -20 7 -20 51 0 43 -3 50 -17 47 -14 -2 -19 -15 -21 -51 -2
-33 -7 -47 -18 -47 -11 0 -14 15 -14 63 l0 63 42 1 c23 1 48 -3 55 -9z m201 0
c7 -7 12 -25 12 -40 0 -25 -3 -28 -35 -28 -19 0 -35 -5 -35 -11 0 -6 14 -9 33
-7 23 2 32 -1 32 -12 0 -23 -62 -26 -86 -4 -21 19 -25 64 -9 95 12 22 68 27
88 7z m172 -98 c8 -5 12 -12 9 -15 -8 -8 -39 5 -39 16 0 11 11 11 30 -1z"/>
<path d="M572 1578 c-17 -17 -15 -74 4 -92 34 -35 84 -5 84 50 0 37 -16 54
-50 54 -14 0 -31 -5 -38 -12z"/>
<path d="M1497 1523 c-11 -10 -8 -41 4 -49 17 -10 32 12 24 35 -6 21 -16 26
-28 14z"/>
<path d="M1850 1571 c0 -17 6 -21 31 -21 24 0 30 4 27 18 -2 10 -14 18 -31 20
-22 3 -27 -1 -27 -17z"/>
<path d="M1140 1535 c-11 -13 -9 -15 15 -15 16 0 25 5 23 12 -7 19 -24 20 -38
3z"/>
<path d="M2114 1536 c-11 -28 0 -61 21 -61 16 0 20 7 20 35 0 25 -5 36 -18 38
-9 2 -20 -3 -23 -12z"/>
<path d="M2347 1543 c-14 -13 -6 -23 19 -23 22 0 25 2 14 15 -14 16 -23 19
-33 8z"/>
<path d="M2790 1535 c-18 -21 -4 -65 20 -65 24 0 38 44 20 65 -7 8 -16 15 -20
15 -4 0 -13 -7 -20 -15z"/>
<path d="M556 1305 c-3 -9 0 -15 9 -15 8 0 15 7 15 15 0 8 -4 15 -9 15 -5 0
-11 -7 -15 -15z"/>
<path d="M3727 1334 c-13 -13 -7 -71 9 -85 26 -21 49 1 49 47 0 34 -3 39 -25
42 -14 2 -29 0 -33 -4z"/>
<path d="M4330 1271 c0 -27 19 -36 37 -18 18 18 9 37 -18 37 -12 0 -19 -7 -19
-19z"/>
<path d="M895 1300 c-3 -5 3 -10 15 -10 12 0 18 5 15 10 -3 6 -10 10 -15 10
-5 0 -12 -4 -15 -10z"/>
<path d="M1085 1300 c-3 -5 3 -10 15 -10 12 0 18 5 15 10 -3 6 -10 10 -15 10
-5 0 -12 -4 -15 -10z"/>
<path d="M1240 1260 c-8 -5 -12 -12 -9 -15 8 -8 39 5 39 16 0 11 -11 11 -30
-1z"/>
<path d="M1485 1300 c-3 -5 3 -10 15 -10 12 0 18 5 15 10 -3 6 -10 10 -15 10
-5 0 -12 -4 -15 -10z"/>
<path d="M1805 1300 c-3 -5 3 -10 15 -10 12 0 18 5 15 10 -3 6 -10 10 -15 10
-5 0 -12 -4 -15 -10z"/>
<path d="M1995 1300 c-3 -5 3 -10 15 -10 12 0 18 5 15 10 -3 6 -10 10 -15 10
-5 0 -12 -4 -15 -10z"/>
<path d="M2187 1304 c-11 -11 -8 -52 4 -60 6 -3 18 1 27 10 13 12 14 21 6 33
-12 20 -27 26 -37 17z"/>
<path d="M2475 1300 c-3 -5 3 -10 15 -10 12 0 18 5 15 10 -3 6 -10 10 -15 10
-5 0 -12 -4 -15 -10z"/>
<path d="M3107 1304 c-11 -11 -8 -52 4 -60 6 -3 18 1 27 10 13 12 14 21 6 33
-12 20 -27 26 -37 17z"/>
<path d="M3407 1304 c-11 -11 -8 -52 4 -60 6 -3 18 1 27 10 13 12 14 21 6 33
-12 20 -27 26 -37 17z"/>
<path d="M4085 1300 c-3 -5 3 -10 15 -10 12 0 18 5 15 10 -3 6 -10 10 -15 10
-5 0 -12 -4 -15 -10z"/>
<path d="M1720 1060 c0 -23 4 -30 20 -30 16 0 20 7 20 30 0 23 -4 30 -20 30
-16 0 -20 -7 -20 -30z"/>
<path d="M534 1076 c-9 -24 4 -48 23 -44 12 2 18 12 18 28 0 29 -32 41 -41 16z"/>
<path d="M635 1080 c-4 -6 5 -10 19 -10 14 0 26 5 26 10 0 6 -9 10 -19 10 -11
0 -23 -4 -26 -10z"/>
<path d="M747 1083 c-4 -3 -7 -17 -7 -30 0 -16 6 -23 20 -23 16 0 20 7 20 30
0 28 -17 40 -33 23z"/>
<path d="M880 1060 c0 -23 4 -30 20 -30 16 0 20 7 20 30 0 23 -4 30 -20 30
-16 0 -20 -7 -20 -30z"/>
<path d="M1215 1080 c-4 -6 5 -10 19 -10 14 0 26 5 26 10 0 6 -9 10 -19 10
-11 0 -23 -4 -26 -10z"/>
<path d="M1520 1040 c0 -5 9 -10 20 -10 11 0 20 5 20 10 0 6 -9 10 -20 10 -11
0 -20 -4 -20 -10z"/>
<path d="M1870 1080 c0 -5 12 -10 26 -10 14 0 23 4 19 10 -3 6 -15 10 -26 10
-10 0 -19 -4 -19 -10z"/>
<path d="M2320 1080 c0 -5 12 -10 26 -10 14 0 23 4 19 10 -3 6 -15 10 -26 10
-10 0 -19 -4 -19 -10z"/>
<path d="M2620 1040 c0 -5 9 -10 20 -10 11 0 20 5 20 10 0 6 -9 10 -20 10 -11
0 -20 -4 -20 -10z"/>
<path d="M2820 1060 c0 -27 3 -31 23 -28 16 2 22 10 22 28 0 18 -6 26 -22 28
-20 3 -23 -1 -23 -28z"/>
<path d="M3350 1080 c0 -5 12 -10 26 -10 14 0 23 4 19 10 -3 6 -15 10 -26 10
-10 0 -19 -4 -19 -10z"/>
<path d="M3602 1063 c2 -17 10 -29 21 -31 13 -3 17 3 17 27 0 25 -4 31 -21 31
-16 0 -20 -5 -17 -27z"/>
<path d="M3904 1076 c-9 -24 4 -48 23 -44 12 2 18 12 18 28 0 29 -32 41 -41
16z"/>
<path d="M4000 1080 c0 -5 12 -10 26 -10 14 0 23 4 19 10 -3 6 -15 10 -26 10
-10 0 -19 -4 -19 -10z"/>
<path d="M4104 1076 c-9 -24 4 -48 23 -44 12 2 18 12 18 28 0 29 -32 41 -41
16z"/>
<path d="M4204 1076 c-9 -24 4 -48 23 -44 12 2 18 12 18 28 0 29 -32 41 -41
16z"/>
<path d="M4340 1080 c0 -5 12 -10 26 -10 14 0 23 4 19 10 -3 6 -15 10 -26 10
-10 0 -19 -4 -19 -10z"/>
<path d="M4490 1040 c0 -5 9 -10 20 -10 11 0 20 5 20 10 0 6 -9 10 -20 10 -11
0 -20 -4 -20 -10z"/>
<path d="M4650 1080 c0 -5 12 -10 26 -10 14 0 23 4 19 10 -3 6 -15 10 -26 10
-10 0 -19 -4 -19 -10z"/>
<path d="M534 855 c-9 -22 22 -53 37 -38 15 15 7 47 -14 51 -9 2 -20 -4 -23
-13z"/>
<path d="M658 832 c-10 -2 -18 -8 -18 -13 0 -13 27 -11 35 2 9 13 4 16 -17 11z"/>
<path d="M1014 855 c-9 -22 22 -53 37 -38 15 15 7 47 -14 51 -9 2 -20 -4 -23
-13z"/>
<path d="M1188 832 c-10 -2 -18 -8 -18 -13 0 -13 27 -11 35 2 9 13 4 16 -17
11z"/>
<path d="M1458 863 c6 -2 18 -2 25 0 6 3 1 5 -13 5 -14 0 -19 -2 -12 -5z"/>
<path d="M1455 820 c3 -5 12 -10 20 -10 8 0 17 5 20 10 4 6 -5 10 -20 10 -15
0 -24 -4 -20 -10z"/>
<path d="M8043 365 c-33 -33 -35 -39 -30 -81 6 -58 39 -94 93 -100 73 -9 137
62 120 132 -10 37 -26 26 -58 -39 -16 -31 -35 -57 -42 -57 -7 0 -21 18 -31 40
-10 22 -24 45 -32 51 -15 14 -17 39 -3 39 6 0 22 -12 37 -26 14 -14 26 -24 27
-22 53 77 50 98 -12 98 -26 0 -43 -9 -69 -35z"/>
<path d="M8780 245 c-10 -13 -9 -15 9 -15 12 0 21 6 21 15 0 8 -4 15 -9 15 -5
0 -14 -7 -21 -15z"/>
<path d="M9110 290 c0 -5 7 -10 15 -10 8 0 15 5 15 10 0 6 -7 10 -15 10 -8 0
-15 -4 -15 -10z"/>
<path d="M7025 1768 c1 -32 2 -33 52 -36 45 -3 51 -1 57 20 11 42 8 45 -52 47
l-58 1 1 -32z"/>
<path d="M7185 1790 c3 -5 10 -10 16 -10 5 0 9 5 9 10 0 6 -7 10 -16 10 -8 0
-12 -4 -9 -10z"/>
<path d="M9300 1775 c0 -14 4 -25 9 -25 4 0 6 11 3 25 -2 14 -6 25 -8 25 -2 0
-4 -11 -4 -25z"/>
<path d="M7161 1773 c-1 -16 5 -23 17 -23 10 0 13 3 6 8 -6 4 -14 14 -17 22
-4 10 -6 8 -6 -7z"/>
<path d="M7024 1701 c4 -5 27 -9 54 -9 34 0 41 3 27 8 -28 12 -87 12 -81 1z"/>
<path d="M9390 1700 c0 -5 5 -10 10 -10 6 0 10 5 10 10 0 6 -4 10 -10 10 -5 0
-10 -4 -10 -10z"/>
<path d="M9351 1674 c0 -11 3 -14 6 -6 3 7 2 16 -1 19 -3 4 -6 -2 -5 -13z"/>
<path d="M9435 1595 c-3 -31 -4 -59 -2 -62 3 -2 9 21 12 52 4 31 5 58 2 61 -2
3 -8 -20 -12 -51z"/>
<path d="M9401 1534 c0 -11 3 -14 6 -6 3 7 2 16 -1 19 -3 4 -6 -2 -5 -13z"/>
<path d="M7860 1362 c0 -14 48 -33 55 -22 4 6 -6 15 -20 20 -32 12 -35 12 -35
2z"/>
<path d="M7935 1341 c-2 -5 7 -13 22 -20 27 -12 39 -9 29 7 -8 13 -45 22 -51
13z"/>
<path d="M8010 1309 c0 -5 5 -7 10 -4 6 3 10 8 10 11 0 2 -4 4 -10 4 -5 0 -10
-5 -10 -11z"/>
</g>
</svg>
