<svg id="Layer_1" data-name="Layer 1" xmlns="http://www.w3.org/2000/svg" width="18" height="18" viewBox="0 0 18 18"><title>icon-minimize-screen
</title><path d="M10.64,8l4,0a.65.65,0,0,0,.47-1.1L13.82,5.59,17.61,1.8A1,1,0,1,0,16.2.39L12.41,4.18,11.1,2.87a.65.65,0,0,0-1.1.46v4A.65.65,0,0,0,10.64,8Z"/><path d="M7.36,10l-4,0a.65.65,0,0,0-.47,1.1l1.31,1.31L.39,16.2a1,1,0,0,0,0,1.41,1,1,0,0,0,1.41,0l3.79-3.79L6.9,15.13A.65.65,0,0,0,8,14.67v-4A.65.65,0,0,0,7.36,10Z"/><path d="M4.18,5.59,2.87,6.9A.65.65,0,0,0,3.33,8h4A.65.65,0,0,0,8,7.36l0-4a.65.65,0,0,0-1.1-.47L5.59,4.18,1.8.39A1,1,0,0,0,.39,1.8Z"/><path d="M13.82,12.41l1.31-1.31a.65.65,0,0,0-.46-1.1h-4a.65.65,0,0,0-.65.64l0,4a.65.65,0,0,0,1.1.47l1.31-1.31L16,17.39a1,1,0,0,0,1.41,0,1,1,0,0,0,0-1.41Z"/></svg>