<svg id="Layer_1" data-name="Layer 1" xmlns="http://www.w3.org/2000/svg" width="18" height="18" viewBox="0 0 18 18"><defs><style>.cls-1{fill-rule:evenodd;}</style></defs><title>icon-rotate-counterclockwise
</title><path class="cls-1" d="M16.94,11.05A7.91,7.91,0,0,0,9,2.26V.14A.14.14,0,0,0,8.8,0L4.34,3.25a.12.12,0,0,0,0,.21L8.8,6.64A.15.15,0,0,0,9,6.54V4.42a5.76,5.76,0,0,1,5.73,6.08A5.84,5.84,0,0,1,3.2,11a1.09,1.09,0,0,0-1.09-.91A1.1,1.1,0,0,0,1,11.35,8,8,0,0,0,9.87,18,8,8,0,0,0,16.94,11.05Z"/></svg>