<svg id="Layer_1" data-name="Layer 1" xmlns="http://www.w3.org/2000/svg" width="18.12" height="18" viewBox="0 0 18.12 18"><title>icon-full-screen
</title><path d="M17.42,0l-4,0A.64.64,0,0,0,13,1.1L14.3,2.41,10.51,6.2a1,1,0,0,0,0,1.41,1,1,0,0,0,1.41,0l3.8-3.79L17,5.13a.61.61,0,0,0,1-.46v-4A.6.6,0,0,0,17.42,0Z"/><path d="M3.94,2.41,5.25,1.1A.64.64,0,0,0,4.79,0h-4A.64.64,0,0,0,.17.64l-.05,4a.66.66,0,0,0,1.11.47l1.3-1.31L6.32,7.61A1,1,0,0,0,7.74,6.2Z"/><path d="M6.32,10.39,2.53,14.18,1.16,12.87A.69.69,0,0,0,0,13.33v4A.71.71,0,0,0,.7,18l4.06,0a.65.65,0,0,0,.47-1.1L3.94,15.59,7.73,11.8a1,1,0,0,0,0-1.41A1,1,0,0,0,6.32,10.39Z"/><path d="M17,12.87l-1.3,1.31-3.8-3.79a1,1,0,0,0-1.41,1.41l3.79,3.79L13,16.9a.64.64,0,0,0,.45,1.1h4a.64.64,0,0,0,.64-.64l0-4A.65.65,0,0,0,17,12.87Z"/></svg>