<svg id="Layer_1" data-name="Layer 1" xmlns="http://www.w3.org/2000/svg" width="18" height="18" viewBox="0 0 18 18"><defs><style>.cls-1{fill-rule:evenodd;}</style></defs><title>info</title><path class="cls-1" d="M9.49,0a2.21,2.21,0,0,1,2,2.42,2.22,2.22,0,0,1-2,2.4,2.25,2.25,0,0,1-2-2.43A2.22,2.22,0,0,1,9.49,0Z"/><path class="cls-1" d="M8.33,5.86h2c.47,0,.75.25.75.82a9.18,9.18,0,0,1-.12,1.38l-.78,5.09c-.09.57-.18,1.13-.23,1.7a2.4,2.4,0,0,0,.07.81c.07.37.31.57.61.51a2.65,2.65,0,0,0,.75-.25c.19-.09.38-.26.57-.34s.54.11.45.45a1.25,1.25,0,0,1-.29.56A3.43,3.43,0,0,1,9.44,18,8.88,8.88,0,0,1,8,17.92a2.51,2.51,0,0,1-1.67-2.57c.09-.87.21-1.72.33-2.56.21-1.49.42-3,.66-4.48a1.32,1.32,0,0,0,0-.28c0-.62-.16-.85-.68-.93A3.11,3.11,0,0,1,6,7a.55.55,0,0,1-.35-.59.49.49,0,0,1,.44-.48,2.32,2.32,0,0,1,.45,0Z"/></svg>