<svg id="Layer_1" data-name="Layer 1" xmlns="http://www.w3.org/2000/svg" width="18" height="18" viewBox="0 0 18 18"><title>list</title><path d="M16.87,10.13H5.29a1.13,1.13,0,1,1,0-2.26H16.87a1.13,1.13,0,0,1,0,2.26Z"/><path d="M16.87,15.8H5.29a1.14,1.14,0,0,1,0-2.27H16.87a1.14,1.14,0,0,1,0,2.27Z"/><path d="M16.87,4.47H5.29a1.14,1.14,0,0,1,0-2.27H16.87a1.14,1.14,0,0,1,0,2.27Z"/><path d="M1.51,4.84A1.51,1.51,0,1,1,3,3.33,1.51,1.51,0,0,1,1.51,4.84Z"/><path d="M1.51,10.51A1.51,1.51,0,1,1,3,9,1.52,1.52,0,0,1,1.51,10.51Z"/><path d="M1.51,16.18A1.51,1.51,0,1,1,3,14.67,1.52,1.52,0,0,1,1.51,16.18Z"/></svg>