<svg id="Layer_1" data-name="Layer 1" xmlns="http://www.w3.org/2000/svg" width="18" height="18" viewBox="0 0 18 18"><defs><style>.cls-1{fill-rule:evenodd;}</style></defs><title>Sound-middle</title><path class="cls-1" d="M6.91,2.88a.76.76,0,0,0-.55.23L3.62,5.87H.86a.79.79,0,0,0-.79.79v4.68a.79.79,0,0,0,.79.79H3.62l2.74,2.76a.76.76,0,0,0,.55.23h0a.78.78,0,0,0,.54-.21.75.75,0,0,0,.26-.57V3.66A.79.79,0,0,0,6.91,2.88Z"/><path class="cls-1" d="M12.42,9A4.72,4.72,0,0,0,9.21,4.54l-.16,0a.38.38,0,0,0-.34.35.49.49,0,0,0,.3.56,3.79,3.79,0,0,1,0,7.16.47.47,0,0,0-.3.56c0,.17.14.35.33.35a.47.47,0,0,0,.16,0A4.7,4.7,0,0,0,12.42,9Z"/></svg>