<svg id="Layer_1" data-name="Layer 1" xmlns="http://www.w3.org/2000/svg" width="18" height="18" viewBox="0 0 18 18"><title>Subtitles</title><path d="M16.4,2.59a.56.56,0,0,1,.56.56v11.7a.56.56,0,0,1-.56.56H1.6A.56.56,0,0,1,1,14.85V3.15a.56.56,0,0,1,.56-.56H16.4m0-1H1.6A1.56,1.56,0,0,0,0,3.15v11.7A1.56,1.56,0,0,0,1.6,16.41H16.4A1.56,1.56,0,0,0,18,14.85V3.15A1.56,1.56,0,0,0,16.4,1.59Z"/><path d="M7.26,7.65A1.14,1.14,0,0,0,7,7.34a1.23,1.23,0,0,0-.37-.21,1.25,1.25,0,0,0-.43-.07,1.43,1.43,0,0,0-.71.16A1.35,1.35,0,0,0,5,7.65a1.76,1.76,0,0,0-.26.61A2.76,2.76,0,0,0,4.67,9a2.59,2.59,0,0,0,.09.68,1.79,1.79,0,0,0,.26.6,1.33,1.33,0,0,0,.46.42,1.43,1.43,0,0,0,.71.16,1.12,1.12,0,0,0,.87-.34,1.62,1.62,0,0,0,.39-.91H8.63a2.82,2.82,0,0,1-.24.95,2.19,2.19,0,0,1-.51.71,2.3,2.3,0,0,1-.75.46,2.85,2.85,0,0,1-.94.15A2.81,2.81,0,0,1,5,11.63,2.58,2.58,0,0,1,4.17,11a2.71,2.71,0,0,1-.53-.92A3.23,3.23,0,0,1,3.45,9a3.36,3.36,0,0,1,.19-1.16,2.75,2.75,0,0,1,.53-.93A2.47,2.47,0,0,1,5,6.26a3,3,0,0,1,2-.1,2.44,2.44,0,0,1,.73.39,2.17,2.17,0,0,1,.53.63A2.3,2.3,0,0,1,8.59,8H7.4A1,1,0,0,0,7.26,7.65Z"/><path d="M13,7.65a1.34,1.34,0,0,0-.27-.31,1.28,1.28,0,0,0-.38-.21A1.21,1.21,0,0,0,12,7.06a1.33,1.33,0,0,0-1.17.59,2,2,0,0,0-.26.61,3.29,3.29,0,0,0-.08.71,3.08,3.08,0,0,0,.08.68,2,2,0,0,0,.26.6,1.36,1.36,0,0,0,.47.42,1.39,1.39,0,0,0,.7.16,1.12,1.12,0,0,0,.88-.34,1.62,1.62,0,0,0,.39-.91h1.18a2.82,2.82,0,0,1-.24.95,2.08,2.08,0,0,1-.52.71,2.25,2.25,0,0,1-.74.46,3.1,3.1,0,0,1-2.1-.07A2.44,2.44,0,0,1,10,11a2.9,2.9,0,0,1-.54-.92A3.48,3.48,0,0,1,9.23,9a3.62,3.62,0,0,1,.18-1.16A3,3,0,0,1,10,6.88a2.35,2.35,0,0,1,.86-.62A2.84,2.84,0,0,1,12,6a2.73,2.73,0,0,1,.87.13,2.33,2.33,0,0,1,.73.39,2.06,2.06,0,0,1,.54.63,2.12,2.12,0,0,1,.26.85H13.18A1,1,0,0,0,13,7.65Z"/></svg>