<svg id="Layer_1" data-name="Layer 1" xmlns="http://www.w3.org/2000/svg" width="18" height="18" viewBox="0 0 18 18"><title>icon-arrows</title><path d="M8.55.16,5.7,2.91A.64.64,0,0,0,6.16,4H8V6.37a1,1,0,0,0,1,1,1,1,0,0,0,.7-.29A1,1,0,0,0,10,6.41V4h1.81a.58.58,0,0,0,.42-1L9.42.19A.61.61,0,0,0,8.55.16Z"/><path d="M9.4,17.87l2.85-2.77a.64.64,0,0,0-.46-1.1H9.94V11.65a1,1,0,0,0-1-1,.92.92,0,0,0-.67.29,1,1,0,0,0-.26.7V14H6.14a.59.59,0,0,0-.42,1l2.82,2.81A.59.59,0,0,0,9.4,17.87Z"/><path d="M17.83,8.59,15.08,5.74A.63.63,0,0,0,14,6.2V8.05H11.63a1,1,0,0,0-1,1,.94.94,0,0,0,.28.68,1,1,0,0,0,.7.26H14v1.85a.57.57,0,0,0,1,.42L17.8,9.46A.6.6,0,0,0,17.83,8.59Z"/><path d="M.12,9.44l2.77,2.85A.65.65,0,0,0,4,11.83V10H6.34a1,1,0,0,0,1-1,.93.93,0,0,0-.29-.69A1,1,0,0,0,6.36,8H4V6.18a.6.6,0,0,0-1-.42L.16,8.58A.59.59,0,0,0,.12,9.44Z"/></svg>