<svg id="Layer_1" data-name="Layer 1" xmlns="http://www.w3.org/2000/svg" width="18" height="18" viewBox="0 0 18 18"><defs><style>.cls-1{fill-rule:evenodd;}</style></defs><title>more-info</title><path d="M9,18a9,9,0,1,1,9-9A9,9,0,0,1,9,18ZM9,1.38A7.62,7.62,0,1,0,16.62,9,7.63,7.63,0,0,0,9,1.38Z"/><path class="cls-1" d="M9,3.71a1.3,1.3,0,0,1,1.16,1.43A1.3,1.3,0,0,1,9,6.54,1.31,1.31,0,0,1,7.83,5.12,1.3,1.3,0,0,1,9,3.71Z"/><path class="cls-1" d="M8.32,7.16H9.47c.28,0,.44.14.44.47a4.54,4.54,0,0,1-.07.82l-.45,3c-.06.33-.11.66-.14,1a1.51,1.51,0,0,0,0,.48c0,.22.18.33.36.3a1.53,1.53,0,0,0,.44-.15c.11-.05.22-.15.34-.2s.31.07.26.27a.8.8,0,0,1-.17.33A2,2,0,0,1,9,14.29a4.85,4.85,0,0,1-.85,0,1.46,1.46,0,0,1-1-1.51c.05-.51.12-1,.19-1.5q.18-1.32.39-2.64a.86.86,0,0,0,0-.16c0-.36-.1-.5-.4-.55a1.43,1.43,0,0,1-.39-.08.32.32,0,0,1-.2-.35A.28.28,0,0,1,7,7.17H8.32Z"/></svg>