<svg id="Layer_1" data-name="Layer 1" xmlns="http://www.w3.org/2000/svg" width="18" height="18" viewBox="0 0 18 18"><defs><style>.cls-1{fill-rule:evenodd;}</style></defs><title>Mute</title><path class="cls-1" d="M6.91,2.88a.76.76,0,0,0-.55.23L3.62,5.87H.86a.79.79,0,0,0-.79.79v4.68a.79.79,0,0,0,.79.79H3.62l2.74,2.76a.76.76,0,0,0,.55.23h0a.78.78,0,0,0,.54-.21.75.75,0,0,0,.26-.57V3.66A.79.79,0,0,0,6.91,2.88Z"/><path d="M14.28,9.2l3.56-3.56a.53.53,0,0,0-.75-.75L13.53,8.45,10,4.89a.53.53,0,0,0-.75.75L12.78,9.2,9.22,12.75a.54.54,0,0,0,0,.76.53.53,0,0,0,.37.15.54.54,0,0,0,.38-.15L13.53,10l3.56,3.56a.54.54,0,0,0,.38.15.53.53,0,0,0,.37-.15.53.53,0,0,0,0-.75Z"/></svg>