<svg id="Layer_1" data-name="Layer 1" xmlns="http://www.w3.org/2000/svg" width="18" height="18" viewBox="0 0 18 18"><defs><style>.cls-1{fill-rule:evenodd;}</style></defs><title>search</title><path class="cls-1" d="M18,16.62A1.4,1.4,0,0,1,16.62,18a1.31,1.31,0,0,1-1-.41l-3.71-3.7a7.43,7.43,0,0,1-4.31,1.34,7.46,7.46,0,0,1-3-.6A7.65,7.65,0,0,1,2.22,13,7.54,7.54,0,0,1,.6,10.57a7.58,7.58,0,0,1,0-5.91A7.4,7.4,0,0,1,4.66.6a7.58,7.58,0,0,1,5.91,0A7.54,7.54,0,0,1,13,2.22a7.65,7.65,0,0,1,1.62,2.44,7.46,7.46,0,0,1,.6,3,7.43,7.43,0,0,1-1.34,4.31l3.71,3.71A1.32,1.32,0,0,1,18,16.62Zm-5.54-9A4.67,4.67,0,0,0,11,4.19,4.66,4.66,0,0,0,7.62,2.77,4.67,4.67,0,0,0,4.19,4.19,4.67,4.67,0,0,0,2.77,7.62,4.66,4.66,0,0,0,4.19,11a4.67,4.67,0,0,0,3.43,1.42A4.66,4.66,0,0,0,11,11,4.66,4.66,0,0,0,12.46,7.62Z"/></svg>